<svg width="320" height="171" viewBox="0 0 320 171" fill="none" xmlns="http://www.w3.org/2000/svg">
<path d="M312 165.931C315.322 159.841 315 151.494 314.333 144.931C311.906 121.024 303.372 100.883 285 84.8196C265.011 67.3418 236.307 47.5717 208.222 55.8196C184.808 62.6958 163.036 83.1145 156.667 106.82C154.002 116.736 152.417 137.131 164.778 142.264C175.55 146.737 193.375 140.852 202.889 135.708C213.334 130.062 214.439 119.695 212.556 108.931C208.866 87.8495 197.188 67.7912 182.556 52.4863C156.656 25.396 117.08 15.9885 80.7778 13.5974C63.7309 12.4745 46.5639 12.8532 29.6667 15.4307C22.6179 16.5059 18.4178 20.1802 12 22.9307" stroke="#9CA3AF" stroke-width="10" stroke-linecap="round"/>
<path d="M16.5411 6C12.7624 10.1567 10.9768 15.4689 7.26337 19.6667C5.10314 22.1087 5.78436 21.8157 8.76337 23.3333C15.701 26.8676 22.5766 30.5177 29.5411 34" stroke="#9CA3AF" stroke-width="11" stroke-linecap="round"/>
</svg>
